<svg width="140" height="42" fill="none" xmlns="http://www.w3.org/2000/svg"><path d="M47.53 15.764c-2.852 0-5.002 2.247-5.002 5.23 0 2.984 2.172 5.23 5.053 5.23 2.85 0 5-2.246 5-5.23 0-2.983-2.172-5.23-5.052-5.23zM61.98.213H0V42h61.98L76.616 21.15 61.98.213zM32.408 27.61l-.143.121c-2.314 1.95-4.993 2.939-7.962 2.939-2.807 0-5.34-.975-7.13-2.746-1.775-1.755-2.753-4.217-2.753-6.93 0-2.606.994-5.032 2.8-6.83 1.834-1.834 4.337-2.844 7.061-2.844 3.072 0 5.196.74 7.345 2.555l.306.259-3.02 3.614-.314-.26c-1.317-1.091-2.468-1.724-4.451-1.724-2.63 0-4.77 2.346-4.77 5.23 0 3.06 2.125 5.281 5.053 5.281 1.288 0 2.434-.304 3.327-.884v-1.944h-3.99v-4.216h8.641v8.379zm22.295.218c-1.86 1.833-4.407 2.842-7.174 2.842-2.766 0-5.309-1.002-7.15-2.823-1.812-1.793-2.81-4.224-2.81-6.853a9.493 9.493 0 01.726-3.701 9.534 9.534 0 012.111-3.133c1.86-1.832 4.407-2.837 7.175-2.837 2.767 0 5.308 1.003 7.148 2.822 1.813 1.793 2.81 4.224 2.81 6.854a9.493 9.493 0 01-.726 3.699 9.533 9.533 0 01-2.11 3.13z" fill="#181C27"/><path d="M14.803 21.028c0-5.007 3.92-9.108 9.284-9.108 3.188 0 5.11.855 6.957 2.415L28.59 17.28c-1.366-1.132-2.58-1.786-4.63-1.786-2.833 0-5.084 2.49-5.084 5.535 0 3.221 2.226 5.586 5.363 5.586 1.416 0 2.681-.352 3.668-1.056V23.04h-3.921v-3.35h7.69v7.65c-1.821 1.534-4.325 2.792-7.564 2.792-5.515 0-9.31-3.85-9.31-9.105zM38.294 21.151c0-5.007 3.975-9.108 9.436-9.108 5.46 0 9.385 4.05 9.385 9.108 0 5.008-3.975 9.109-9.436 9.109-5.46 0-9.385-4.051-9.385-9.109zm14.748 0c0-3.02-2.226-5.535-5.363-5.535-3.137 0-5.312 2.466-5.312 5.535 0 3.02 2.226 5.536 5.363 5.536 3.137 0 5.312-2.466 5.312-5.536z" fill="#fff" stroke="#fff" stroke-miterlimit="10"/><path d="M140 0H78.097v41.787H140V0z" fill="#FF6C00"/><path d="M97.169 12.524h3.896v17.614h-3.896V12.524zM112.59 16.097h-5.389v-3.573h14.673v3.573h-5.388v14.04h-3.896v-14.04z" fill="#fff" stroke="#fff" stroke-miterlimit="10"/></svg>