<svg aria-hidden="true" style="position:absolute;width:0;height:0" xmlns="http://www.w3.org/2000/svg" overflow="hidden">
  <defs>
    <symbol id="add-members" viewBox="0 0 32 32"><path d="M18.528 21.037a11.652 11.652 0 00-2.413-1.301l-.08-.028a6.35 6.35 0 002.069-4.173l.002-.023a9.281 9.281 0 016.519-2.662h.038-.002c1.936 0 3.794.584 5.374 1.686a1.25 1.25 0 001.434-2.048l-.004-.003a11.66 11.66 0 00-2.414-1.301l-.08-.028a6.344 6.344 0 002.091-4.714v-.003A6.38 6.38 0 0024.688.065a6.38 6.38 0 00-6.374 6.374c0 1.859.8 3.536 2.075 4.702a11.84 11.84 0 00-2.753 1.501l.033-.023c-.97-2.363-3.252-3.998-5.916-4a6.38 6.38 0 00-6.374 6.372 6.36 6.36 0 002.064 4.691c-3.39 1.27-6.139 4-7.258 7.478a3.632 3.632 0 00-.184 1.155c0 .829.272 1.594.731 2.212l-.007-.01a3.712 3.712 0 003.012 1.542h10.892a1.25 1.25 0 100-2.5H3.747c-.411 0-.775-.2-1.001-.509l-.002-.003a1.227 1.227 0 01-.177-1.129l-.003.009c1.235-3.842 5.003-6.525 9.162-6.525 1.936 0 3.794.584 5.374 1.686a1.25 1.25 0 001.434-2.048l-.004-.003zm6.16-18.475a3.879 3.879 0 013.875 3.875 3.879 3.879 0 01-3.875 3.875 3.879 3.879 0 01-3.874-3.875 3.879 3.879 0 013.873-3.875zm-12.936 8.553a3.879 3.879 0 013.875 3.877 3.879 3.879 0 01-3.875 3.874 3.879 3.879 0 01-3.874-3.873 3.879 3.879 0 013.873-3.875zM32 26.123a1.25 1.25 0 01-1.25 1.248h-3.438v3.437a1.25 1.25 0 11-2.5 0v-3.437h-3.435a1.25 1.25 0 110-2.5h3.437v-3.437a1.25 1.25 0 112.5 0v3.437h3.437c.69 0 1.25.56 1.25 1.25z"/></symbol>
    <symbol id="back-arrow" viewBox="0 0 32 32"><path d="M.667 15.635a.513.513 0 000 .73l3.285 3.285a.517.517 0 00.731-.731L1.763 16l2.92-2.919a.517.517 0 00-.731-.731L.667 15.635zM32 15.484H1.032v1.032H32v-1.032z"/></symbol>
    <symbol id="close" viewBox="0 0 32 32"><path d="M23.507 24.675l-7.511-7.511L8.68 24.48l-1.207-1.206 7.316-7.318-7.473-7.473 1.129-1.128 7.473 7.473 7.356-7.356 1.206 1.206-7.355 7.356 7.511 7.511-1.129 1.129z"/></symbol>
    <symbol id="edit" viewBox="0 0 32 32"><path d="M16 0C7.163 0 0 7.163 0 16c0 8.835 7.163 16 16 16 8.835 0 16-7.163 16-16S24.835 0 16 0zm7.605 11.514l-1.52 1.52-3.093-3.093-1.173 1.173 3.093 3.094-7.587 7.584-3.093-3.093-1.174 1.174 3.094 3.093-.757.757-.014-.016a.598.598 0 01-.378.274l-.004.001-2.885.643a.59.59 0 01-.553-.16.597.597 0 01-.159-.56l-.001.004.64-2.885a.605.605 0 01.274-.381l.003-.002-.016-.014 12.211-12.21a.457.457 0 01.648 0l2.446 2.445a.457.457 0 010 .648z"/></symbol>
    <symbol id="logout" viewBox="0 0 32 32"><path stroke-width=".533" d="M26.768 11.243a.982.982 0 011.392 0l2.798 2.798c.516.518.836 1.232.836 2.021s-.319 1.504-.836 2.021l-2.798 2.798a.978.978 0 01-1.392 0 .98.98 0 010-1.39l2.446-2.446h-15.65a.983.983 0 110-1.966h15.652l-2.446-2.446a.98.98 0 010-1.39zM22.359 24.5V27a4.74 4.74 0 01-4.734 4.734H5.063A4.74 4.74 0 01.329 27V5.002A4.74 4.74 0 015.063.268h12.562a4.74 4.74 0 014.734 4.734v2.5a.985.985 0 01-1.968 0V5.001a2.77 2.77 0 00-2.766-2.766H5.063a2.77 2.77 0 00-2.768 2.766v22.002a2.77 2.77 0 002.768 2.766h12.562a2.77 2.77 0 002.766-2.766V24.5a.985.985 0 011.968 0z"/></symbol>
  <symbol id="plus" viewBox="0 0 32 32">
<path  d="M31.883 17.058h-14.754v14.372h-2.37v-14.372h-14.677v-2.217h14.677v-14.448h2.37v14.448h14.754v2.217z"></path>
<symbol id="analytics" viewBox="0 0 32 32">
<path  d="M6 22.667h-4c-0.368 0-0.667 0.299-0.667 0.667v8c0 0.368 0.299 0.667 0.667 0.667h4c0.368 0 0.667-0.299 0.667-0.667v-8c0-0.368-0.299-0.667-0.667-0.667zM5.333 30.667h-2.667v-6.667h2.667v6.667h-0z"></path>
<path  d="M14 16h-4c-0.368 0-0.667 0.299-0.667 0.667v14.667c0 0.368 0.299 0.667 0.667 0.667h4c0.368 0 0.667-0.299 0.667-0.667v-14.667c0-0.368-0.299-0.667-0.667-0.667zM13.333 30.667h-2.667v-13.333h2.667v13.333z"></path>
<path  d="M22 18.667h-4c-0.368 0-0.667 0.299-0.667 0.667v12c0 0.368 0.299 0.667 0.667 0.667h4c0.368 0 0.667-0.299 0.667-0.667v-12c0-0.368-0.299-0.667-0.667-0.667zM21.333 30.667h-2.667v-10.667h2.667v10.667z"></path>
<path  d="M31.333 30.667h-30.667c-0.368 0-0.667 0.299-0.667 0.667s0.299 0.667 0.667 0.667h30.667c0.368 0 0.667-0.299 0.667-0.667s-0.299-0.667-0.667-0.667z"></path>
<path  d="M30 10.667h-4c-0.368 0-0.667 0.299-0.667 0.667v20c0 0.368 0.299 0.667 0.667 0.667h4c0.368 0 0.667-0.299 0.667-0.667v-20c0-0.368-0.299-0.667-0.667-0.667zM29.333 30.667h-2.667v-18.667h2.667v18.667z"></path>
<path  d="M4 12c-1.471 0-2.667 1.196-2.667 2.667s1.196 2.667 2.667 2.667 2.667-1.196 2.667-2.667c0-1.471-1.196-2.667-2.667-2.667zM4 16c-0.736 0-1.333-0.599-1.333-1.333s0.597-1.333 1.333-1.333 1.333 0.599 1.333 1.333c0 0.735-0.597 1.333-1.333 1.333z"></path>
<path  d="M12 5.333c-1.471 0-2.667 1.196-2.667 2.667s1.196 2.667 2.667 2.667c1.471 0 2.667-1.196 2.667-2.667s-1.196-2.667-2.667-2.667zM12 9.333c-0.736 0-1.333-0.599-1.333-1.333s0.597-1.333 1.333-1.333 1.333 0.599 1.333 1.333c0 0.735-0.597 1.333-1.333 1.333z"></path>
<path  d="M20 8c-1.471 0-2.667 1.196-2.667 2.667s1.196 2.667 2.667 2.667c1.471 0 2.667-1.196 2.667-2.667s-1.196-2.667-2.667-2.667zM20 12c-0.736 0-1.333-0.599-1.333-1.333s0.597-1.333 1.333-1.333 1.333 0.599 1.333 1.333c0 0.735-0.597 1.333-1.333 1.333z"></path>
<path  d="M28 0c-1.471 0-2.667 1.196-2.667 2.667s1.196 2.667 2.667 2.667c1.471 0 2.667-1.196 2.667-2.667s-1.196-2.667-2.667-2.667zM28 4c-0.736 0-1.333-0.599-1.333-1.333s0.597-1.333 1.333-1.333 1.333 0.599 1.333 1.333c0 0.735-0.597 1.333-1.333 1.333z"></path>
<path  d="M27.059 3.608c-0.26-0.26-0.683-0.26-0.943 0l-5.173 5.173c-0.26 0.26-0.26 0.683 0 0.943 0.131 0.129 0.301 0.195 0.472 0.195 0.169 0 0.34-0.064 0.471-0.195l5.173-5.173c0.26-0.26 0.26-0.683 0-0.943z"></path>
<path  d="M18.388 9.128l-4.283-1.221c-0.359-0.104-0.723 0.104-0.823 0.459-0.101 0.355 0.104 0.723 0.457 0.824l4.283 1.221c0.061 0.017 0.123 0.025 0.183 0.025 0.291 0 0.557-0.191 0.641-0.484 0.101-0.353-0.104-0.723-0.459-0.824z"></path>
<path  d="M10.96 8.831c-0.229-0.288-0.648-0.335-0.936-0.107l-5.027 4.008c-0.288 0.231-0.336 0.649-0.105 0.937 0.132 0.165 0.327 0.251 0.521 0.251 0.145 0 0.292-0.048 0.415-0.144l5.027-4.008c0.288-0.231 0.336-0.649 0.105-0.937z"></path>
</symbol>
<symbol id="delete" viewBox="0 0 32 32">
<path d="M8 26c0 1.656 1.343 3 3 3h10c1.656 0 3-1.344 3-3l2-16h-20l2 16zM19 13h2v13h-2v-13zM15 13h2v13h-2v-13zM11 13h2v13h-2v-13zM25.5 6h-6.5c0 0-0.448-2-1-2h-4c-0.553 0-1 2-1 2h-6.5c-0.829 0-1.5 0.671-1.5 1.5s0 1.5 0 1.5h22c0 0 0-0.671 0-1.5s-0.672-1.5-1.5-1.5z"></path>
</symbol>

</symbol>
  </defs>
</svg>