<svg aria-hidden="true" style="position:absolute;width:0;height:0" xmlns="http://www.w3.org/2000/svg" overflow="hidden">
  <defs>
    <symbol id="add-members" viewBox="0 0 32 32"><path d="M18.528 21.037a11.652 11.652 0 00-2.413-1.301l-.08-.028a6.35 6.35 0 002.069-4.173l.002-.023a9.281 9.281 0 016.519-2.662h.038-.002c1.936 0 3.794.584 5.374 1.686a1.25 1.25 0 001.434-2.048l-.004-.003a11.66 11.66 0 00-2.414-1.301l-.08-.028a6.344 6.344 0 002.091-4.714v-.003A6.38 6.38 0 0024.688.065a6.38 6.38 0 00-6.374 6.374c0 1.859.8 3.536 2.075 4.702a11.84 11.84 0 00-2.753 1.501l.033-.023c-.97-2.363-3.252-3.998-5.916-4a6.38 6.38 0 00-6.374 6.372 6.36 6.36 0 002.064 4.691c-3.39 1.27-6.139 4-7.258 7.478a3.632 3.632 0 00-.184 1.155c0 .829.272 1.594.731 2.212l-.007-.01a3.712 3.712 0 003.012 1.542h10.892a1.25 1.25 0 100-2.5H3.747c-.411 0-.775-.2-1.001-.509l-.002-.003a1.227 1.227 0 01-.177-1.129l-.003.009c1.235-3.842 5.003-6.525 9.162-6.525 1.936 0 3.794.584 5.374 1.686a1.25 1.25 0 001.434-2.048l-.004-.003zm6.16-18.475a3.879 3.879 0 013.875 3.875 3.879 3.879 0 01-3.875 3.875 3.879 3.879 0 01-3.874-3.875 3.879 3.879 0 013.873-3.875zm-12.936 8.553a3.879 3.879 0 013.875 3.877 3.879 3.879 0 01-3.875 3.874 3.879 3.879 0 01-3.874-3.873 3.879 3.879 0 013.873-3.875zM32 26.123a1.25 1.25 0 01-1.25 1.248h-3.438v3.437a1.25 1.25 0 11-2.5 0v-3.437h-3.435a1.25 1.25 0 110-2.5h3.437v-3.437a1.25 1.25 0 112.5 0v3.437h3.437c.69 0 1.25.56 1.25 1.25z"/></symbol>
    <symbol id="back-arrow" viewBox="0 0 32 32"><path d="M.667 15.635a.513.513 0 000 .73l3.285 3.285a.517.517 0 00.731-.731L1.763 16l2.92-2.919a.517.517 0 00-.731-.731L.667 15.635zM32 15.484H1.032v1.032H32v-1.032z"/></symbol>
    <symbol id="close" viewBox="0 0 32 32"><path d="M23.507 24.675l-7.511-7.511L8.68 24.48l-1.207-1.206 7.316-7.318-7.473-7.473 1.129-1.128 7.473 7.473 7.356-7.356 1.206 1.206-7.355 7.356 7.511 7.511-1.129 1.129z"/></symbol>
    <symbol id="edit" viewBox="0 0 32 32"><path d="M16 0C7.163 0 0 7.163 0 16c0 8.835 7.163 16 16 16 8.835 0 16-7.163 16-16S24.835 0 16 0zm7.605 11.514l-1.52 1.52-3.093-3.093-1.173 1.173 3.093 3.094-7.587 7.584-3.093-3.093-1.174 1.174 3.094 3.093-.757.757-.014-.016a.598.598 0 01-.378.274l-.004.001-2.885.643a.59.59 0 01-.553-.16.597.597 0 01-.159-.56l-.001.004.64-2.885a.605.605 0 01.274-.381l.003-.002-.016-.014 12.211-12.21a.457.457 0 01.648 0l2.446 2.445a.457.457 0 010 .648z"/></symbol>
    <symbol id="logout" viewBox="0 0 32 32"><path stroke-width=".533" d="M26.768 11.243a.982.982 0 011.392 0l2.798 2.798c.516.518.836 1.232.836 2.021s-.319 1.504-.836 2.021l-2.798 2.798a.978.978 0 01-1.392 0 .98.98 0 010-1.39l2.446-2.446h-15.65a.983.983 0 110-1.966h15.652l-2.446-2.446a.98.98 0 010-1.39zM22.359 24.5V27a4.74 4.74 0 01-4.734 4.734H5.063A4.74 4.74 0 01.329 27V5.002A4.74 4.74 0 015.063.268h12.562a4.74 4.74 0 014.734 4.734v2.5a.985.985 0 01-1.968 0V5.001a2.77 2.77 0 00-2.766-2.766H5.063a2.77 2.77 0 00-2.768 2.766v22.002a2.77 2.77 0 002.768 2.766h12.562a2.77 2.77 0 002.766-2.766V24.5a.985.985 0 011.968 0z"/></symbol>
    <symbol id="plus" viewBox="0 0 32 32"><path d="M16 .615c7.477 0 13.538 6.061 13.538 13.538S23.477 27.691 16 27.691 2.462 21.63 2.462 14.153 8.523.615 16 .615z"/><path d="M21.498 14.52h-5.107v4.975h-.82V14.52H10.49v-.767h5.081V8.752h.82v5.001h5.108v.767z"/></symbol>
  </defs>
</svg>