<svg width="528" height="569" fill="none" xmlns="http://www.w3.org/2000/svg"><path fill-rule="evenodd" clip-rule="evenodd" d="M387.722.173c-118.894 0-215.277 96.384-215.277 215.278v7.962c0 3.273.073 6.529.217 9.766.394 8.812-6.973 16.281-15.793 16.281C70.233 249.46 0 319.693 0 406.329v5.802C0 498.767 70.233 569 156.869 569c68.496 0 126.739-43.901 148.126-105.1 6.54-18.716 26.674-31.631 46.216-28.292a216.728 216.728 0 0036.511 3.083C506.617 438.691 603 342.308 603 223.413v-7.962C603 96.557 506.617.173 387.722.173z" fill="#fff"/></svg>